<?xml version="1.0" standalone="no"?>
<!DOCTYPE svg PUBLIC "-//W3C//DTD SVG 20010904//EN"
 "http://www.w3.org/TR/2001/REC-SVG-20010904/DTD/svg10.dtd">
<svg version="1.0" xmlns="http://www.w3.org/2000/svg"
 width="1200.000000pt" height="1200.000000pt" viewBox="0 0 1200.000000 1200.000000"
 preserveAspectRatio="xMidYMid meet">
<metadata>
Created by potrace 1.11, written by Peter Selinger 2001-2013
</metadata>
<g transform="translate(0.000000,1200.000000) scale(0.100000,-0.100000)"
fill="#000000" stroke="none">
<path d="M1615 11985 c-304 -43 -546 -134 -795 -300 -247 -164 -454 -393 -604
-668 -77 -141 -163 -386 -182 -517 -3 -19 -7 -41 -9 -48 -17 -51 -20 -618 -20
-4462 0 -4358 0 -4348 30 -4500 12 -58 38 -162 51 -200 9 -25 17 -49 18 -55 1
-5 9 -26 18 -46 9 -20 19 -47 23 -60 15 -46 108 -215 170 -309 81 -121 116
-162 239 -285 177 -176 347 -289 601 -400 82 -36 251 -86 340 -100 22 -4 54
-9 70 -11 17 -3 41 -8 55 -12 14 -4 1974 -7 4355 -8 3461 -2 4346 1 4410 11
138 22 148 24 247 50 320 83 639 275 873 526 33 36 71 80 85 99 14 18 30 38
35 44 17 19 91 129 119 176 110 190 184 390 229 615 l21 110 2 4330 c3 4384 3
4378 -29 4535 -49 239 -145 474 -273 665 -217 326 -502 558 -859 702 -98 40
-256 87 -325 97 -52 8 -87 15 -117 23 -16 4 -1976 8 -4358 9 -3467 2 -4348 -1
-4420 -11z"/>
</g>
</svg>
