<?xml version="1.0" standalone="no"?>
<!DOCTYPE svg PUBLIC "-//W3C//DTD SVG 20010904//EN"
 "http://www.w3.org/TR/2001/REC-SVG-20010904/DTD/svg10.dtd">
<svg version="1.0" xmlns="http://www.w3.org/2000/svg"
 width="1200.000000pt" height="1200.000000pt" viewBox="0 0 1200.000000 1200.000000"
 preserveAspectRatio="xMidYMid meet">
<metadata>
Created by potrace 1.11, written by Peter Selinger 2001-2013
</metadata>
<g transform="translate(0.000000,1200.000000) scale(0.100000,-0.100000)"
fill="#000000" stroke="none">
<path d="M1380 11984 c-47 -8 -97 -16 -112 -18 -15 -3 -54 -12 -85 -21 -32
-10 -65 -18 -73 -20 -31 -7 -197 -78 -255 -109 -268 -145 -490 -357 -637 -609
-93 -159 -180 -409 -205 -592 -10 -73 -11 -9124 -1 -9211 8 -68 9 -77 34 -179
39 -167 118 -353 213 -497 87 -134 260 -323 355 -387 12 -8 23 -18 26 -21 3
-3 41 -30 85 -59 196 -129 452 -222 680 -249 33 -4 2112 -7 4620 -7 l4560 0
112 23 c457 94 822 346 1063 732 116 186 201 422 227 631 10 79 11 9121 1
9204 -4 33 -10 71 -13 85 -3 14 -8 39 -11 55 -20 116 -73 261 -147 404 -240
466 -702 786 -1227 850 -45 6 -1888 9 -4600 9 -3824 0 -4538 -2 -4610 -14z"/>
</g>
</svg>
